<?xml version="1.0" standalone="no"?>
<!DOCTYPE svg PUBLIC "-//W3C//DTD SVG 20010904//EN"
 "http://www.w3.org/TR/2001/REC-SVG-20010904/DTD/svg10.dtd">
<svg version="1.0" xmlns="http://www.w3.org/2000/svg"
 width="512.000000pt" height="512.000000pt" viewBox="0 0 512.000000 512.000000"
 preserveAspectRatio="xMidYMid meet">

<g transform="translate(0.000000,512.000000) scale(0.100000,-0.100000)"
fill="#000000" stroke="none">
<path d="M2090 5109 c-252 -7 -522 -21 -755 -39 -66 -5 -160 -12 -210 -15
-244 -16 -347 -57 -467 -183 -77 -81 -129 -189 -143 -302 -8 -67 -33 -453 -52
-815 -23 -446 -23 -1628 0 -2075 23 -438 46 -763 58 -842 21 -135 112 -275
227 -352 65 -43 171 -86 211 -86 50 0 51 -3 51 -150 0 -126 2 -140 23 -170 41
-61 69 -75 166 -78 108 -5 157 8 200 52 40 42 50 83 51 210 l0 99 68 -7 c442
-41 1670 -41 2090 0 l62 6 0 -114 c0 -98 3 -120 23 -158 33 -66 86 -90 197
-90 101 0 155 21 191 71 22 31 24 46 29 178 l5 144 65 14 c192 39 365 205 409
393 18 75 54 631 76 1180 7 162 7 1318 0 1480 -24 589 -59 1114 -79 1187 -49
182 -199 330 -382 378 -110 28 -696 69 -1219 85 -361 11 -510 11 -895 -1z
m-814 -594 c83 -52 135 -161 119 -254 -11 -63 -63 -141 -119 -175 -101 -63
-246 -41 -321 47 -83 97 -85 232 -3 331 74 90 222 113 324 51z m-41 -1559 c85
-36 149 -118 161 -208 20 -144 -102 -281 -250 -280 -71 0 -118 17 -170 62
-134 118 -104 334 56 414 60 30 147 35 203 12z m21 -1654 c78 -40 144 -144
144 -227 0 -83 -65 -186 -144 -228 -57 -30 -165 -30 -221 0 -94 49 -139 124
-139 228 0 118 67 208 184 246 40 13 133 3 176 -19z"/>
</g>
</svg>
